<?xml version="1.0" standalone="yes"?>
<svg xmlns="http://www.w3.org/2000/svg" width="1080" height="1080">
<path style="fill:transparent; stroke:none;" d="M0 0L0 1080L1080 1080L1080 0L0 0z"/>
<path style="fill:#6c5e61; stroke:none;" d="M399 183C387.822 181.138 392.219 199.851 382 203L382 213L378 212L374 240L389.177 237.503L399 244L409 232L394 229C394.569 217.888 402.777 209.201 406.459 199C412.473 182.34 405.488 161.619 420.104 148.225C425.848 142.961 435.668 141.873 443 140.13C453.82 137.558 464.083 138.753 475 138.946C490.653 139.223 510.072 137.644 525 143.669C537.244 148.611 549.449 153.328 560.714 160.2C563.442 161.864 567.029 161.88 569.236 164.318C573.568 169.101 580.363 180.695 573 185C575.935 178.124 570.288 174.443 564 173C561.217 177.292 553.743 174.097 552.322 179.148C548.775 191.753 562.586 203.301 549 214C555.421 222.304 567.542 230.661 570 241L569 241C565.704 236.733 562.899 240.315 558.83 241.155C550.522 242.871 542.839 239.082 535 243L535 246C542.418 247.767 549.703 246.143 557 247.326C572.197 249.791 583.96 256.216 595 266L601 261L602.896 239.91L601 221C588.156 216.775 587.712 202.722 585.671 191C583.882 180.719 579.086 168.79 571.621 161.275C563.838 153.439 549.003 148.99 539 144.745C533.781 142.529 529.23 138.516 524 136.573C517.784 134.264 512.235 135.384 506 134.636C487.967 132.471 469.656 130.504 451.285 134.765C441.416 137.054 428.645 136.778 420.09 142.993C408.81 151.186 402.239 170.037 399 183z"/>
<path style="fill:#a46343; stroke:none;" d="M394 229L409 232L399 244L387 236L381 239L376 238L367 248L366.375 278L367 296L363 286L362 286L359 289L360 301L363 301L365 321C372.116 322.158 372.378 329.895 376.785 334.586C379.438 337.408 383.147 338.718 385.412 342.018C393.444 353.72 392.852 374.363 393.816 388C394.248 394.118 391.362 401 393.603 406.996C395.902 413.148 406.096 419.883 411.003 424.286C421.209 433.441 428.744 446.066 440 454C432.214 442.937 421.558 431.981 411.831 422.576C407.445 418.335 398.66 412.381 396.113 406.957C391.834 397.842 395.052 381.198 393.711 371C390.777 348.686 384.754 326.315 376 306L381 308C384.449 300.834 380.104 297.808 380.116 290.985C380.122 287.227 382.675 284.496 383.571 281C386.335 270.218 382.313 263.625 374 257L374 256C379.767 252.58 389.771 248.824 393.817 257.174C398.238 266.298 393.471 280.495 393.039 290C392.302 306.243 395.203 318.846 400.328 334C401.744 338.186 404.729 343.616 404.788 348C404.866 353.786 402.165 357.978 404.483 363.896C406.705 369.569 413.725 370.965 416.525 376.129C419.679 381.944 419.207 389.439 422.89 394.957C427.534 401.916 435.45 407.307 440.58 414.286C443.725 418.563 445.352 424.16 450.285 426.972C453.856 429.007 466.105 433.213 470 432.387C474.339 431.467 477.377 428.329 482 428.044C494.655 427.263 503.259 429.476 516 426C509.718 405.853 480.025 419.964 471 401C486.692 397.264 519.103 409.239 523 384L491 382.8L463 375.372L444 376C450.915 363.676 478.42 371.502 489 373.443C495.342 374.606 501.339 366.733 508 366.225C514.045 365.765 519.132 369.964 524.985 370.335C528.529 370.56 530.619 366.795 534 367.171C537.698 367.582 539.669 372.264 543.772 371.574C547.104 371.014 547.135 366.007 550.204 364.459C567.747 355.611 580.022 340.955 583.96 321C584.953 315.967 582.421 310.88 583.728 306C585.424 299.664 589.154 284.006 594.499 279.933C599.328 276.254 606.503 277.189 612 277L612 276L609 268L608 268C602.455 274.626 590.763 272.967 590 283L589 283L589 264L590 264C592.834 272.972 599.626 265.521 605 264C601.699 259.333 597.346 261.819 595 266C579.772 246.853 556.694 250.028 535 246L535 243L558.83 241.529L569 241L570 241C568.687 231.179 556.082 220.607 549 214C564.819 206.925 548.561 189.462 552.333 179.028C554.474 173.108 562.704 179.047 564 173C569.918 175.171 574.729 178.174 573 185C580.323 182.425 575.209 173.604 572.631 169.001C567.169 159.247 551.223 153.947 541 149.63C513.922 138.194 479.905 135.028 451 138.819C441.691 140.041 427.605 141.194 420.104 147.419C405.112 159.86 412.413 181.891 406.455 198C402.568 208.512 394.271 217.428 394 229z"/>
<path style="fill:#f4c522; stroke:none;" d="M484 176C483.969 184.755 478.084 183.859 475.697 190.39C474.412 193.905 477.741 197.446 477.522 200.961C477.269 205.033 470.154 212.924 466.871 215.143C459.692 219.995 449.91 216.781 442.001 218.519C439.405 219.089 434.715 220.436 435.176 223.95C436.251 232.148 451.757 228.971 457 229.758C470.194 231.738 485.816 241.724 492 253L479.91 245.075L465 241L465 242C478.197 245.451 485.573 250.747 485 265L486 265L491 260L491 259C489.132 256.734 489.683 254.806 493.035 254.452C497.907 253.938 502.279 257.308 506.999 257.633C511.071 257.913 513.819 255.862 518 257C516.374 250.838 526.398 250.945 531 250L531 249L508 255.474L498 253C503.372 239.348 524.387 235.544 537 232C534.414 223.519 523.143 220.46 519.367 211.985C514.992 202.17 521.023 189.785 517.239 180.109C515.509 175.684 510.808 176.416 507 175.852C497.179 174.397 493.641 172.956 484 176M452 177L450 180C452.251 179.527 453.118 179.14 452 177z"/>
<path style="fill:#6c5e61; stroke:none;" d="M380 178L380 183L381 183L380 178z"/>
<path style="fill:#f4c522; stroke:none;" d="M450 183L450 194C455.222 191.148 456.021 185.22 450 183z"/>
<path style="fill:#d5d0d8; stroke:none;" d="M493 189L493 197L501 202L502 192L493 189z"/>
<path style="fill:#f4c522; stroke:none;" d="M500 192L501 193L500 192z"/>
<path style="fill:#6c5e61; stroke:none;" d="M380 196L381 197L380 196M380 198L379 200L380 198z"/>
<path style="fill:#d5d0d8; stroke:none;" d="M504.333 199.667L504.667 200.333L504.333 199.667z"/>
<path style="fill:#6c5e61; stroke:none;" d="M380 202L378 205L380 202z"/>
<path style="fill:#d5d0d8; stroke:none;" d="M495 209L484 228L489 227C493.749 235.992 513.858 239.575 510 225C517.441 220.375 504.862 213.359 503 207L495 209z"/>
<path style="fill:#f4c522; stroke:none;" d="M505 216L506 217L505 216z"/>
<path style="fill:#d5d0d8; stroke:none;" d="M516 227L515 230L521 231L521 230L516 227z"/>
<path style="fill:#f4c522; stroke:none;" d="M426.667 237.333L427.333 237.667L426.667 237.333z"/>
<path style="fill:#d5d0d8; stroke:none;" d="M423 238L423 239C428.029 240.486 435.245 238.578 439.567 241.938C442.436 244.169 442.443 248.836 443.714 252C447.684 261.891 451.162 267.818 447 278C458.388 280.767 455.06 261.384 462 255C463.913 263.765 473.597 257.299 478.353 262.603C480.714 265.236 476.003 276.794 476 281C487.781 276.896 488.387 253.752 478.91 246.85C462.677 235.028 441.525 238 423 238z"/>
<path style="fill:#a46343; stroke:none;" d="M374 238L375 239L374 238z"/>
<path style="fill:#f4c522; stroke:none;" d="M411 238L411 239L424 240L411 238M376 251C381.982 249.12 386.247 249.515 392 252L387 241L393 252L398 254L398 246C392.891 245.781 392.132 241.118 387.791 239.955C380.836 238.093 374.253 244.582 376 251M462.667 240.333L463.333 240.667L462.667 240.333z"/>
<path style="fill:#d5d0d8; stroke:none;" d="M387 241C385.869 245.969 389.379 248.919 393 252C393.705 247.107 390.674 243.975 387 241z"/>
<path style="fill:#a46343; stroke:none;" d="M571 241L571 245L572 245L571 241z"/>
<path style="fill:#f4c522; stroke:none;" d="M402.333 243.667L402.667 244.333L402.333 243.667z"/>
<path style="fill:#d5d0d8; stroke:none;" d="M377 244L377 249L379 244L377 244z"/>
<path style="fill:#f4c522; stroke:none;" d="M400 244L401 245L400 244z"/>
<path style="fill:#d5d0d8; stroke:none;" d="M398 261L400 261L403 245L402 244C396.608 247.307 396.694 255.316 398 261z"/>
<path style="fill:#f4c522; stroke:none;" d="M402 246L403 247L402 246z"/>
<path style="fill:#6c5e61; stroke:none;" d="M368.333 247.667L368.667 248.333L368.333 247.667z"/>
<path style="fill:#a46343; stroke:none;" d="M363 248L364 249L363 248z"/>
<path style="fill:#6c5e61; stroke:none;" d="M359 289L361 289L362 286L363 286L367 296C368.247 284.656 368.1 271.47 367.954 260C367.917 257.139 369.64 250.865 366.552 249.137C362.536 246.889 359.088 252.956 358.395 256.001C356.414 264.7 356.495 280.524 359 289z"/>
<path style="fill:#f4c522; stroke:none;" d="M401 248L400 255L401 255L401 248z"/>
<path style="fill:#d5d0d8; stroke:none;" d="M520 262L547 261.559L561 255C555.489 246.492 534.323 248.406 526 250.961C523.903 251.604 518.538 251.397 517.453 253.603C516.279 255.992 518.996 259.92 520 262z"/>
<path style="fill:#f4c522; stroke:none;" d="M546 249L546 250L550 250L546 249M551 250L551 251L561 255L551 260C554.938 262.313 567.789 260.364 563.762 253.513C561.659 249.935 554.559 250.074 551 250z"/>
<path style="fill:#6c5e61; stroke:none;" d="M374 256L374 257C380.556 264.351 386.308 269.321 383.571 280C382.665 283.533 380.304 286.235 380.062 289.996C379.609 297.061 383.697 300.599 381 308L376 306C382.531 328.204 391.348 349.318 393.83 373C394.74 381.681 391.581 401.855 396.606 408.791C401.206 415.139 409.059 420.184 414.41 426.089C434.008 447.718 450.89 467.136 481 471.281C484.688 471.789 488.284 469.269 492 469.133C497.149 468.944 501.818 471.582 507 470.287C524.957 465.798 537.966 449.251 549.515 436.075C571.7 410.764 582.874 385.3 591.784 353C594.853 341.875 599.054 330.58 600 319C610.193 315.599 610.621 286.379 612 277C606.464 276.821 599.44 275.915 594.46 279.343C588.996 283.102 585.543 298.825 583.692 305C581.732 311.537 584.427 318.998 582.661 326C581.409 330.96 578.237 333.849 575.584 338C573.436 341.361 573.429 345.524 571.125 348.83C565.173 357.37 557.686 359.544 549.355 364.498C546.814 366.01 546.621 370.474 543.741 371.168C539.939 372.084 537.587 367.009 534 366.661C530.558 366.328 528.454 369.982 524.985 369.926C519.88 369.843 515.183 366.391 510 366.108C502.158 365.68 497.911 372.128 491 373.137C485.632 373.921 477.195 370 471 370C463.618 370 446.948 367.982 444 376L463 375.633L490 382.814L523 384C515.848 409.472 488.137 395.934 471 401C477.355 420.899 506.404 407.19 516 426C510.598 426.93 505.565 429.732 500 429.87C493.252 430.037 486.965 427.344 480 428.109C475.468 428.606 471.621 432.978 467 432.112C448.615 428.665 443.619 416.336 432.405 403.104C429.265 399.399 424.707 397.391 422.303 392.996C419.211 387.341 419.862 379.754 416.026 374.455C412.764 369.948 406.549 368.474 404.483 362.957C402.028 356.402 406.353 350.455 404.302 344C400.222 331.161 394.031 319.752 393.09 306C392.013 290.284 396.916 274.714 394.736 259.039C393.309 248.779 379.521 251.593 374 256z"/>
<path style="fill:#d5d0d8; stroke:none;" d="M509 268C514.312 265.344 515.537 260.513 514 255C506.228 258.88 501.923 254.398 494.005 254.232C492.207 254.195 488.449 254.937 489.497 257.625C490.803 260.976 497.272 259.952 500 260.005C505.927 260.118 507.779 262.423 509 268z"/>
<path style="fill:#030202; stroke:none;" d="M379 256L379 258L385 258L379 256z"/>
<path style="fill:#6c5e61; stroke:none;" d="M429 260C423.931 252.207 413.14 259.915 415.068 267.891C417.169 276.585 425.058 266.623 428.896 267.037C433.893 267.576 434.934 275.536 441.001 275.971C448.76 276.528 450.163 268.474 446.633 263.213C442.493 257.043 434.948 257.031 429 260z"/>
<path style="fill:#f4c522; stroke:none;" d="M526 258L530 261L526 258M397 259L398 260L397 259M493 260L493 261L508 263C505.041 258.436 497.913 260 493 260M524 260L525 261L524 260M478 261L479 262L478 261M522 261L523 262L522 261M530 261L531 262L530 261M544.667 261.333L545.333 261.667L544.667 261.333M548 261L548 262L551 262L548 261M587 261L588 262L587 261M589 264L589 270L593 269L593 268L589 264M596 269L598 271L590 275L590 271L589 271L589 281C593.778 275.359 602.177 275.565 606.377 270.432C608.607 267.708 606.445 264.133 603.02 264.465C600.308 264.729 598.042 267.429 596 269z"/>
<path style="fill:#a46343; stroke:none;" d="M606 264L607 265L606 264z"/>
<path style="fill:#6c5e61; stroke:none;" d="M503 265L504 272L503 265z"/>
<path style="fill:#f4c522; stroke:none;" d="M508 265L508 268L509 268L508 265z"/>
<path style="fill:#6c5e61; stroke:none;" d="M529 268L529 269C533.442 269.841 539.42 270.538 540.471 276.005C541.097 279.265 538.89 281.692 541.453 284.656C548.426 292.72 555.455 282.498 557 276C558.642 276.949 559.907 277.645 561.051 279.228C569.893 291.468 549.102 290.425 543 293C552.404 303.212 556.79 292.51 566.003 291.403C573.23 290.534 573.413 302.958 580.942 298.968C588.47 294.978 589.118 275.818 582.721 270.599C574.302 263.728 561.84 264.736 552 266.821C544.294 268.454 536.469 266.247 529 268z"/>
<path style="fill:#a46343; stroke:none;" d="M607 265L608 266L607 265z"/>
<path style="fill:#f4c522; stroke:none;" d="M484.333 267.667L484.667 268.333L484.333 267.667z"/>
<path style="fill:#6c5e61; stroke:none;" d="M515 267C516.166 273.872 524.714 274.96 528 269L521 270L515 267z"/>
<path style="fill:#d5d0d8; stroke:none;" d="M435 277L431 268C422.916 270.978 429.612 275.957 435 277z"/>
<path style="fill:#f4c522; stroke:none;" d="M509 268C508.215 271.433 507.912 288.131 514 279C509.621 279.388 506.8 275.44 512 274L509 268M483 269L483 276L484 276L483 269z"/>
<path style="fill:#d5d0d8; stroke:none;" d="M589 270L590 275L598 270L589 270z"/>
<path style="fill:#f4c522; stroke:none;" d="M609 269L610 270L609 269M494 270L495 274L498 273L498 271L494 270M476 271L477 272L476 271z"/>
<path style="fill:#d5d0d8; stroke:none;" d="M402.333 272.667L402.667 273.333L402.333 272.667z"/>
<path style="fill:#f4c522; stroke:none;" d="M456 273L457 274L456 273z"/>
<path style="fill:#d5d0d8; stroke:none;" d="M461 273L461 278L465 277L465 275L461 273M509 273C506.453 283.451 518.848 276.623 509 273z"/>
<path style="fill:#f4c522; stroke:none;" d="M455 274L456 275L455 274M475 274L475 278L476 278L475 274M513 274L514 275L513 274z"/>
<path style="fill:#6c5e61; stroke:none;" d="M528.667 274.333L529.333 274.667L528.667 274.333M610 274L610 277L611 277L610 274z"/>
<path style="fill:#f4c522; stroke:none;" d="M514 275L514 278L515 278L514 275z"/>
<path style="fill:#d5d0d8; stroke:none;" d="M537 275C528.917 277.554 536.656 285.48 537 275z"/>
<path style="fill:#f4c522; stroke:none;" d="M460 276L461 277L460 276M482 276L483 277L482 276M481 278L482 279L481 278M480 279L481 280L480 279z"/>
<path style="fill:#030202; stroke:none;" d="M547 279L547 281L549 279L547 279z"/>
<path style="fill:#f4c522; stroke:none;" d="M478.667 280.333L479.333 280.667L478.667 280.333M477 281L478 282L477 281z"/>
<path style="fill:#d5d0d8; stroke:none;" d="M526 281L526 282L529 282L526 281M589 281L590 282L589 281M405 282C413.265 296.91 444.04 295.707 458 293L441.715 290.921L405 282z"/>
<path style="fill:#f4c522; stroke:none;" d="M589 282L590 283L589 282M409 283L409 284L423 287L409 283z"/>
<path style="fill:#030202; stroke:none;" d="M602 283L599 291L604 293L605 283L602 283z"/>
<path style="fill:#f4c522; stroke:none;" d="M405 284L406 285L405 284M407 285L408 286L407 285M408 286L409 287L408 286M409 287L409 288L419 294L419 296C403.686 300.958 417.242 324.672 422.624 333C424.133 335.334 424.671 340.536 427.317 341.759C431.678 343.776 441.139 335.984 445 334L442 329L446 327C452.689 337.753 471.67 304.254 450 311L453 306C450.289 306.365 432.594 311.417 433.77 304.356C434.845 297.905 450.077 296.601 455 295L429.91 293.84L409 287M439 290L440 291L439 290M454 290L454 291L458 292L458 293L455 293L455 294L468 293L454 290z"/>
<path style="fill:#6c5e61; stroke:none;" d="M359 291L360 292L359 291z"/>
<path style="fill:#f4c522; stroke:none;" d="M443 291L444 292L443 291M446 291L446 292L450 292L446 291z"/>
<path style="fill:#6c5e61; stroke:none;" d="M360 296L361 297L360 296M360 298L361 299L360 298M361 300L361 302L363 302L361 300z"/>
<path style="fill:#f4c522; stroke:none;" d="M538 304L539 305L538 304z"/>
<path style="fill:#030202; stroke:none;" d="M385 314L385 318L386 318L385 314z"/>
<path style="fill:#f4c522; stroke:none;" d="M466 326C470.097 330.135 474.728 327.618 480 327.917C488.294 328.386 494.9 336.135 501.382 325.96C504.975 320.32 498.757 312.31 492.424 314.844C487.845 316.677 483.726 319.539 479 321.201C474.413 322.813 470.127 323.265 466 326z"/>
<path style="fill:#a46343; stroke:none;" d="M600 319C594.075 362.997 576.877 402.575 548.749 436.075C537.88 449.02 523.491 466.464 506 470.252C501.333 471.262 496.707 468.941 492 469.055C479.583 469.354 465.94 469.82 454.015 463.547C449.116 460.97 446.217 456.301 441 454L441 455C445.064 457.706 447.819 462.082 452.04 464.428C458.172 467.837 465.454 467.659 471.985 469.429C474.91 470.222 477.075 473.011 480.09 473.357C484.209 473.831 487.828 470.273 492 470.198C497.831 470.094 502.993 473.223 508.961 471.351C523.564 466.77 535.185 454.562 544.964 443.514C562.773 423.396 576.442 404.421 585.97 379C590.821 366.056 593.62 352.272 597.37 339C599.082 332.944 599.098 325.071 603 320L600 319z"/>
<path style="fill:#f4c522; stroke:none;" d="M601 320C600.487 331.229 595.559 342.256 592.633 353C589.583 364.204 587.394 375.212 582.667 386C578.997 394.374 572.246 404.155 570.533 413C569.606 417.789 571.105 423.102 570.985 428C570.807 435.282 566.243 443.882 568.893 451C570.826 456.189 576.583 468.757 580.314 472.726C585.739 478.498 595.915 481.648 603 484.864C614.796 490.219 626.138 496.579 638 501.861C658.342 510.92 680.729 518.034 700 529.232C708.297 534.054 714.673 541.728 722 547.855C732.181 556.368 742.788 563.157 751.91 573C776.891 599.957 788.39 642.128 789.961 678C790.913 699.742 787.55 721.285 790.184 743C791.849 756.718 798.833 769.627 802 783C809.901 777.78 812.87 759.728 815.656 751C826.789 716.119 827 681.14 827 645C827 625.584 828.669 605.324 826.83 586C821.115 525.942 796.088 456.138 754.83 411.004C735.569 389.932 709.147 372.194 685 357.192C660.949 342.25 630.345 321.341 601 320M124 787C126.728 765.873 129.51 745.41 128.985 724C128.54 705.823 124.179 688.36 124.179 670C124.179 636.511 136.046 595.821 156.679 569C169.598 552.206 190.528 536.102 208 524.216C226.801 511.426 250.697 505.881 271 495.73C286.955 487.752 300.794 474.369 317 467.58C328.852 462.615 351.935 469.222 360.581 459.772C363.662 456.405 364.179 451.53 367.225 448.04C370.637 444.13 377.806 442.002 379.427 436.895C382.253 427.996 376.604 418.153 379.305 409C381.666 400.998 391.558 399.194 393.566 392.856C394.856 388.785 393.222 384.124 393.039 380C392.521 368.274 392.054 352.466 386.015 342.018C383.81 338.202 379.562 336.988 376.785 333.776C374.076 330.642 372.563 323.239 368.606 321.647C361.685 318.861 346.312 329.271 340 332C311.19 344.458 282.494 363.286 258 382.801C238.886 398.03 219.395 413.49 203.289 432C144.966 499.029 115.915 588.31 109.91 676C107.989 704.064 109.885 731.388 115.4 759C116.894 766.481 117.669 782.202 124 787z"/>
<path style="fill:#030202; stroke:none;" d="M387 324C387 329.358 386.123 334.862 390 339L387 324z"/>
<path style="fill:#6c5e61; stroke:none;" d="M483 336C479.616 333.041 474.571 331.205 470.015 332.438C466.953 333.266 462.884 337.57 467.177 339.914C469.706 341.293 479.847 336.934 483 336z"/>
<path style="fill:#030202; stroke:none;" d="M592 333L592 336L593 336L592 333z"/>
<path style="fill:#6c5e61; stroke:none;" d="M492 345C497.468 345.319 502.769 343.328 508 343.627C511.602 343.833 514.271 346.859 517.996 346.677C520.343 346.563 523.428 345.284 524.11 342.79C525.446 337.903 518.495 335.705 515 335.11C508.096 333.936 495.995 339.297 492 345z"/>
<path style="fill:#030202; stroke:none;" d="M505 341L515 340C512.125 335.566 507.493 336.935 505 341M587 357C579.129 365.85 574.612 377.465 567.349 386.715C561.217 394.523 552.295 404.363 544.7 410.699C541.324 413.516 536.72 414.595 533.557 417.637C530.851 420.241 529.685 423.945 526.892 426.56C519.988 433.023 507.938 436.796 498.845 438.566C494.69 439.375 491.501 434.178 486.999 434.29C474.099 434.61 462.942 442.896 450.325 433.273C435.264 421.786 422.418 403.868 412.555 388C408.272 381.11 404.302 367.463 396 365C396 379.854 397.729 392.059 405.723 404.996C408.891 410.122 413.901 413.991 417.319 419C419.81 422.65 420.714 427.041 423.388 430.561C441.033 453.787 463.263 466 492 466.343C497.136 466.405 501.787 468.856 507 467.431C523.301 462.977 537.208 447.564 547.499 435.036C561.623 417.841 575.048 400.916 583.29 379.985C585.566 374.205 590.285 362.682 587 357M471 374L471 376L473 376L473 374L471 374M500 379L512 379C508.112 377.209 502.726 374.859 500 379M487 378L487 379L490 379L487 378M517 378L517 379C521.569 379.038 527.984 381.916 531 378L517 378z"/>
<path style="fill:#d5d0d8; stroke:none;" d="M240 960L253 902L255 902C256.424 909.67 253.553 916.521 254.443 924C255.672 934.327 260.875 943.622 261.829 954C262.41 960.316 258.292 970.157 262.603 975.621C267.228 981.482 277.467 984.98 284 988.247C301.729 997.112 320.204 1004.4 339 1010.67C414.395 1035.8 495.484 1052.25 574 1030.42C595.53 1024.44 616.194 1016.67 636 1006.22C641.998 1003.05 653.375 998.613 656.972 992.671C658.999 989.323 658 983.753 658 980C658 967.75 655.001 956.134 655 944C654.997 901.481 654.813 859.31 656.965 817C657.549 805.518 660.521 795.186 662.625 784C664.006 776.659 662.804 771.124 668 765L673.439 795L684.465 859L703.775 934L702 950C712.663 942.152 720.963 928.546 728.873 918C749.708 890.223 766.74 860.013 782.247 829C788.457 816.58 801.112 798.889 802.425 785C803.227 776.514 796.325 764.106 793.735 756C789.584 743.011 788.999 729.557 789 716C789.003 665.593 788.608 610.437 750.961 571C742.382 562.014 732.442 555.75 723 547.855C715.673 541.728 709.297 534.054 701 529.232C681.978 518.179 659.971 511.476 640 502.309C627.251 496.456 614.842 489.569 602 484C595.123 481.018 584.049 477.233 579.589 470.945C576.383 466.426 569.143 453.22 568.434 448C566.959 437.143 572.123 426.438 570 415C562.32 418.687 560.516 426.075 554.958 432C540.828 447.062 528.853 461.554 509.91 470.586C503.707 473.544 498.275 470.029 492 470.083C487.915 470.119 484.028 473.453 480.09 472.883C477.456 472.502 475.53 470.139 472.961 469.429C466.417 467.622 459.197 467.785 453.015 464.428C438.622 456.612 426.724 439.92 415.826 428.015C405.856 417.122 393 411.91 393 396C371.32 398.356 382.236 422.003 379.652 434.985C378.415 441.196 371.106 442.801 367.225 447.093C363.017 451.746 362.87 458.557 356.985 461.86C345.642 468.225 329.488 462.281 317 467.17C300.384 473.674 286.192 487.634 270 495.73C252.139 504.66 232.854 510.644 215 519.514C204.53 524.715 196.943 532.963 188 540.195C179.533 547.042 169.84 552.859 162.576 561.04C137.784 588.958 124.079 633.059 124.079 670C124.079 688.039 127.69 705.172 128.91 723C129.777 735.656 129.367 749.465 127.572 762C126.373 770.372 122.458 781.712 123.608 790C125.177 801.309 131.179 813.45 135.4 824C149.772 859.929 173.476 894.699 198.579 924C209.311 936.526 224.739 953.2 240 960z"/>
<path style="fill:#f4c522; stroke:none;" d="M667 765L662.405 784L656.996 836L654.015 904L658 992C677.577 983.724 702.187 958.456 703.892 937C705.047 922.464 694.975 903.028 691.039 889C685.094 867.809 683.318 845.471 678.668 824C675.817 810.833 674.018 797.354 672.282 784C671.484 777.869 671.369 769.658 667 765z"/>
<path style="fill:#a46343; stroke:none;" d="M265 768L265 771L266 771L265 768M262 811L259.7 835L257 900L259 901L260 901C260.01 885.773 265.547 872.183 266.667 857C267.073 851.505 263.716 846.627 264.059 841C264.736 829.873 271.73 821.028 262 811z"/>
<path style="fill:#6c5e61; stroke:none;" d="M261 814L262 835C267.691 829.49 266.581 820.393 263 814L261 814M261 851L259 875L261 875C263.332 867.642 265.228 858.538 263 851L261 851z"/>
<path style="fill:#f4c522; stroke:none;" d="M253 902L242.855 945L241.117 960.816L261 975L261.572 951L254.63 924L255 902L253 902z"/>
</svg>
